<?xml version="1.0" encoding="UTF-8" standalone="no"?>
<!-- Created with Inkscape (http://www.inkscape.org/) -->

<svg
   width="17.839008mm"
   height="18.139328mm"
   viewBox="0 0 17.839008 18.139328"
   version="1.1"
   id="svg5"
   inkscape:version="1.2.1 (9c6d41e410, 2022-07-14)"
   sodipodi:docname="logo.svg"
   xmlns:inkscape="http://www.inkscape.org/namespaces/inkscape"
   xmlns:sodipodi="http://sodipodi.sourceforge.net/DTD/sodipodi-0.dtd"
   xmlns="http://www.w3.org/2000/svg"
   xmlns:svg="http://www.w3.org/2000/svg">
  <sodipodi:namedview
     id="namedview7"
     pagecolor="#ffffff"
     bordercolor="#000000"
     borderopacity="0.25"
     inkscape:showpageshadow="2"
     inkscape:pageopacity="0.0"
     inkscape:pagecheckerboard="0"
     inkscape:deskcolor="#d1d1d1"
     inkscape:document-units="mm"
     showgrid="false"
     inkscape:zoom="11.313709"
     inkscape:cx="41.630911"
     inkscape:cy="35.620504"
     inkscape:window-width="1920"
     inkscape:window-height="1009"
     inkscape:window-x="-8"
     inkscape:window-y="-8"
     inkscape:window-maximized="1"
     inkscape:current-layer="layer1" />
  <defs
     id="defs2" />
  <g
     inkscape:label="Camada 1"
     inkscape:groupmode="layer"
     id="layer1"
     transform="translate(-38.273114,-180.25915)">
    <g
       aria-label="L"
       id="text409"
       style="font-weight:bold;font-size:3.52777px;font-family:'Bodoni MT';-inkscape-font-specification:'Bodoni MT Bold';text-align:end;text-anchor:end;fill:#262626;stroke-width:0.529167;stroke-linecap:square;stop-color:#000000;fill-opacity:1"
       transform="matrix(1.2699125,0,0,1.2699125,-30.697101,-52.415469)"
       inkscape:export-filename="logo.svg"
       inkscape:export-xdpi="96"
       inkscape:export-ydpi="96">
      <path
         id="path1202"
         style="display:inline;fill:#262626;fill-opacity:1"
         inkscape:label="path1202"
         d="m 61.072241,190.07729 v 2.19625 h -5.17e-4 -0.313675 v 0.11368 h 1.939933 l 0.03617,-0.78393 h -0.10697 c -0.03789,0.11254 -0.08136,0.2155 -0.130741,0.30851 -0.04823,0.093 -0.10812,0.17054 -0.179318,0.23254 -0.07005,0.0609 -0.134186,0.0975 -0.192753,0.11007 -0.05742,0.0126 -0.146991,0.0191 -0.268717,0.0191 h -0.219108 v -2.08412 h 0.344682 v -0.11213 z" />
    </g>
    <g
       aria-label="L"
       id="text409-7"
       style="font-weight:bold;font-size:3.52777px;font-family:'Bodoni MT';-inkscape-font-specification:'Bodoni MT Bold';text-align:end;text-anchor:end;fill:#262626;stroke-width:0.529167;stroke-linecap:square;stop-color:#000000;fill-opacity:1"
       transform="matrix(1.2699125,0,0,1.2699125,-31.755435,-55.609176)">
      <path
         id="path1202-7"
         style="display:inline;fill:#262626;fill-opacity:1"
         inkscape:label="path1202"
         d="m 61.072241,190.07729 v 2.19625 h -5.17e-4 -0.313675 v 0.11368 h 1.939933 l 0.03617,-0.78393 h -0.10697 c -0.03789,0.11254 -0.08136,0.2155 -0.130741,0.30851 -0.04823,0.093 -0.10812,0.17054 -0.179318,0.23254 -0.07005,0.0609 -0.134186,0.0975 -0.192753,0.11007 -0.05742,0.0126 -0.146991,0.0191 -0.268717,0.0191 h -0.219108 v -2.08412 h 0.344682 v -0.11213 z" />
    </g>
    <path
       id="path1519"
       style="fill:#d9d1d0;fill-opacity:1;stroke:none;stroke-width:0.529167;stroke-linecap:square;stop-color:#000000"
       inkscape:transform-center-y="-1.0585662"
       d="m 47.274634,181.46696 c -0.118204,0 -1.133324,1.65898 -2.103231,3.33933 0.436125,0.11562 0.875826,0.2343 1.298112,0.35192 0.770446,-0.22925 1.740995,-0.49921 2.67994,-0.74673 -0.894977,-1.53583 -1.765903,-2.94452 -1.874821,-2.94452 z m 1.874821,2.94452 c 0.488895,0.83897 0.98515,1.71512 1.367875,2.42208 0.382243,0.2157 0.777264,0.4433 1.167887,0.67024 0.502193,-1.87379 0.95587,-3.76374 0.872298,-3.84731 -0.0078,-0.008 -0.03127,-0.0106 -0.06925,-0.01 -0.336047,0.0105 -1.794317,0.35766 -3.338814,0.76481 z m 2.535762,3.09232 c -0.213396,0.79622 -0.435369,1.58974 -0.628902,2.24017 0.157429,0.56521 0.317689,1.16132 0.467672,1.73737 1.639183,-0.94877 3.222025,-1.92061 3.222025,-2.03606 0,-0.1117 -1.4805,-1.02338 -3.060795,-1.94148 z m -0.16123,3.97754 c -0.629514,0.36437 -1.265867,0.72519 -1.826245,1.03301 -0.254795,0.44753 -0.520053,0.90593 -0.778247,1.34462 1.669756,0.43802 3.204283,0.79703 3.279386,0.72192 0.0724,-0.0724 -0.258793,-1.50139 -0.674894,-3.09955 z m -2.604492,2.37763 c -0.842154,-0.22091 -1.718038,-0.46171 -2.459799,-0.67748 -0.350041,0.0961 -0.706058,0.19108 -1.059366,0.28422 0.894612,1.5352 1.765438,2.94401 1.874304,2.94401 0.09952,0 0.835801,-1.17608 1.644861,-2.55075 z m -3.519165,-0.39326 c -0.184219,-0.31613 -0.368962,-0.63548 -0.548804,-0.95136 -0.67771,-0.37227 -1.46606,-0.82169 -2.218469,-1.26142 -0.400215,1.54531 -0.711727,2.8989 -0.641305,2.96932 0.07701,0.077 1.68977,-0.30344 3.408578,-0.75654 z m -2.767273,-2.21278 c 0.12741,-0.49196 0.263413,-1.00288 0.399458,-1.49862 -0.178562,-0.61384 -0.374268,-1.31994 -0.561722,-2.02262 -1.423749,0.83545 -2.667538,1.61123 -2.667538,1.71359 0,0.10617 1.34007,0.93702 2.829802,1.80765 z m -0.162264,-3.52124 c 0.513974,-0.3016 1.04956,-0.60997 1.561145,-0.89865 0.322968,-0.59657 0.727523,-1.31307 1.139465,-2.02675 -1.767094,-0.46848 -3.459277,-0.87069 -3.538285,-0.79168 -0.08163,0.0816 0.349484,1.88708 0.837675,3.71708 z" />
    <path
       style="fill:#d9d1d0;fill-opacity:1;stroke:none;stroke-width:0.529167;stroke-linecap:square;stop-color:#000000"
       d="m 43.544721,198.03347 c 0.513974,-0.3016 1.04956,-0.60997 1.561145,-0.89865 0.322968,-0.59657 0.727523,-1.31307 1.139465,-2.02675 -1.767094,-0.46848 -3.459277,-0.87069 -3.538285,-0.79168 -0.08163,0.0816 0.349484,1.88708 0.837675,3.71708 z"
       id="path1850" />
    <path
       style="fill:#d9d1d0;fill-opacity:1;stroke:none;stroke-width:0.529167;stroke-linecap:square;stop-color:#000000"
       d="m 43.311488,180.35097 c -0.12741,0.49197 -0.263413,1.00289 -0.399458,1.49862 0.178562,0.61384 0.374268,1.31994 0.561722,2.02261 1.423749,-0.83546 2.667538,-1.61123 2.667538,-1.7136 0,-0.10616 -1.34007,-0.93701 -2.829802,-1.80763 z"
       id="path1848" />
    <path
       style="fill:#d9d1d0;fill-opacity:1;stroke:none;stroke-width:0.529167;stroke-linecap:square;stop-color:#000000"
       d="m 56.112125,193.05206 c -0.184219,-0.31613 -0.368962,-0.63548 -0.548804,-0.95136 -0.67771,-0.37227 -1.46606,-0.82169 -2.218469,-1.26142 -0.400215,1.54531 -0.711727,2.8989 -0.641305,2.96932 0.07701,0.077 1.68977,-0.30344 3.408578,-0.75654 z"
       id="path1860" />
    <path
       style="fill:#d9d1d0;fill-opacity:1;stroke:none;stroke-width:0.529167;stroke-linecap:square;stop-color:#000000"
       d="m 38.502559,187.1805 c 0.842154,0.22091 1.718038,0.46172 2.4598,0.67748 0.350043,-0.0961 0.706058,-0.19108 1.059365,-0.28422 -0.89461,-1.5352 -1.765439,-2.94401 -1.874302,-2.94401 -0.09952,0 -0.835802,1.17609 -1.644863,2.55075 z"
       id="path1846" />
    <path
       style="fill:#d9d1d0;fill-opacity:1;stroke:none;stroke-width:0.529167;stroke-linecap:square;stop-color:#000000"
       d="m 51.077289,180.25916 c -0.629514,0.36437 -1.265867,0.72519 -1.826245,1.03301 -0.254795,0.44753 -0.520053,0.90593 -0.778247,1.34462 1.669756,0.43802 3.204283,0.79703 3.279386,0.72192 0.0724,-0.0724 -0.258793,-1.50139 -0.674894,-3.09955 z"
       id="path1844" />
    <path
       style="fill:#d9d1d0;fill-opacity:1;stroke:none;stroke-width:0.529167;stroke-linecap:square;stop-color:#000000"
       d="m 50.786486,198.39849 c 0.213397,-0.79623 0.43537,-1.58975 0.628902,-2.24018 -0.157428,-0.56522 -0.317689,-1.16131 -0.467672,-1.73737 -1.639183,0.94877 -3.222025,1.92062 -3.222025,2.03605 0,0.11171 1.4805,1.02339 3.060795,1.9415 z"
       id="path1842" />
    <path
       style="fill:#d9d1d0;fill-opacity:1;stroke:none;stroke-width:0.529167;stroke-linecap:square;stop-color:#000000"
       d="m 54.687177,184.45059 c -0.724249,0.64681 -1.483454,1.30825 -2.099593,1.82463 -0.134898,0.41766 -0.278901,0.85022 -0.423137,1.27833 1.936369,0.11732 3.878869,0.18386 3.944037,0.0853 0.0063,-0.009 0.0041,-0.0328 -0.0041,-0.0699 -0.07749,-0.32716 -0.709276,-1.68655 -1.417081,-3.11842 z"
       id="path1856" />
    <path
       style="fill:#d9d1d0;fill-opacity:1;stroke:none;stroke-width:0.529167;stroke-linecap:square;stop-color:#000000"
       d="m 40.147937,195.0609 c 0.118205,0 1.133325,-1.65898 2.10323,-3.33933 -0.436124,-0.11562 -0.875826,-0.2343 -1.298112,-0.35192 -0.770446,0.22925 -1.740995,0.49921 -2.67994,0.74673 0.894977,1.53583 1.765903,2.94452 1.874822,2.94452 z"
       id="path1519-4" />
  </g>
</svg>
